<svg width="48" height="48" viewBox="0 0 48 48" fill="none" xmlns="http://www.w3.org/2000/svg">
<circle cx="24" cy="24" r="24" fill="#494D56"/>
<path d="M23.4115 37.4956C16.3169 27.2105 15 26.1549 15 22.375C15 17.1973 19.1973 13 24.375 13C29.5527 13 33.75 17.1973 33.75 22.375C33.75 26.1549 32.4331 27.2105 25.3385 37.4956C24.8729 38.1682 23.8771 38.1681 23.4115 37.4956ZM24.375 26.2812C26.5324 26.2812 28.2812 24.5324 28.2812 22.375C28.2812 20.2176 26.5324 18.4688 24.375 18.4688C22.2176 18.4688 20.4688 20.2176 20.4688 22.375C20.4688 24.5324 22.2176 26.2812 24.375 26.2812Z" fill="white"/>
</svg>
