<svg width="48" height="48" viewBox="0 0 48 48" fill="none" xmlns="http://www.w3.org/2000/svg">
<circle cx="24" cy="24" r="24" fill="#494D56"/>
<path d="M31.5986 16.1787C29.5527 14.1279 26.8281 13 23.9326 13C17.9561 13 13.0928 17.8633 13.0928 23.8398C13.0928 25.749 13.5908 27.6143 14.5381 29.2598L13 34.875L18.7471 33.3662C20.3291 34.2305 22.1113 34.6846 23.9277 34.6846H23.9326C29.9043 34.6846 34.875 29.8213 34.875 23.8447C34.875 20.9492 33.6445 18.2295 31.5986 16.1787V16.1787ZM23.9326 32.8584C22.3115 32.8584 20.7246 32.4238 19.3428 31.6035L19.0156 31.4082L15.6074 32.3018L16.5156 28.9766L16.3008 28.6348C15.3975 27.1992 14.9238 25.5439 14.9238 23.8398C14.9238 18.874 18.9668 14.8311 23.9375 14.8311C26.3447 14.8311 28.6055 15.7686 30.3047 17.4727C32.0039 19.1768 33.0488 21.4375 33.0439 23.8447C33.0439 28.8154 28.8984 32.8584 23.9326 32.8584V32.8584ZM28.874 26.1104C28.6055 25.9736 27.2725 25.3193 27.0234 25.2314C26.7744 25.1387 26.5938 25.0947 26.4131 25.3682C26.2324 25.6416 25.7148 26.2471 25.5537 26.4326C25.3975 26.6133 25.2363 26.6377 24.9678 26.501C23.376 25.7051 22.3311 25.0801 21.2813 23.2783C21.0029 22.7998 21.5596 22.834 22.0771 21.7988C22.165 21.6182 22.1211 21.4619 22.0527 21.3252C21.9844 21.1885 21.4424 19.8555 21.2178 19.3135C20.998 18.7861 20.7734 18.8594 20.6074 18.8496C20.4512 18.8398 20.2705 18.8398 20.0898 18.8398C19.9092 18.8398 19.6162 18.9082 19.3672 19.1768C19.1182 19.4502 18.4199 20.1045 18.4199 21.4375C18.4199 22.7705 19.3916 24.0596 19.5234 24.2402C19.6602 24.4209 21.4326 27.1553 24.1523 28.332C25.8711 29.0742 26.5449 29.1377 27.4043 29.0107C27.9268 28.9326 29.0059 28.3564 29.2305 27.7217C29.4551 27.0869 29.4551 26.5449 29.3867 26.4326C29.3232 26.3105 29.1426 26.2422 28.874 26.1104Z" fill="white"/>
</svg>
